<mxfile host="www.draw.io" modified="2019-10-29T04:29:30.589Z" agent="Mozilla/5.0 (Windows NT 10.0; Win64; x64) AppleWebKit/537.36 (KHTML, like Gecko) Chrome/77.0.3865.90 Safari/537.36" etag="iD3G4k-wvvlo5LDrJEyZ" version="12.1.8" type="github" pages="1">
  <diagram name="Page-1" id="e7e014a7-5840-1c2e-5031-d8a46d1fe8dd">
    <mxGraphModel dx="1408" dy="780" grid="1" gridSize="10" guides="1" tooltips="1" connect="1" arrows="1" fold="1" page="1" pageScale="1" pageWidth="1390" pageHeight="980" background="#ffffff" math="0" shadow="0">
      <root>
        <mxCell id="0"/>
        <mxCell id="1" parent="0"/>
        <mxCell id="2" value="Integration Hub Service" style="swimlane;whiteSpace=wrap" parent="1" vertex="1">
          <mxGeometry x="164.5" y="128" width="280" height="570" as="geometry"/>
        </mxCell>
        <mxCell id="5" value="" style="ellipse;shape=startState;fillColor=#000000;strokeColor=#ff0000;" parent="2" vertex="1">
          <mxGeometry x="121" y="41" width="30" height="30" as="geometry"/>
        </mxCell>
        <mxCell id="6" value="" style="edgeStyle=elbowEdgeStyle;elbow=horizontal;verticalAlign=bottom;endArrow=open;endSize=8;strokeColor=#FF0000;endFill=1;rounded=0;entryX=0.5;entryY=0;entryDx=0;entryDy=0;" parent="2" source="5" target="7" edge="1">
          <mxGeometry x="122" y="40" as="geometry">
            <mxPoint x="137.5" y="110" as="targetPoint"/>
          </mxGeometry>
        </mxCell>
        <mxCell id="7" value="Execute Message Flow" style="" parent="2" vertex="1">
          <mxGeometry x="60" y="110" width="150" height="50" as="geometry"/>
        </mxCell>
        <mxCell id="9" value="" style="endArrow=open;strokeColor=#FF0000;endFill=1;rounded=0;entryX=0.5;entryY=0;entryDx=0;entryDy=0;" parent="2" source="7" target="AzenDcOQQB6zt5kxm3Mt-47" edge="1">
          <mxGeometry relative="1" as="geometry">
            <mxPoint x="130.5" y="220" as="targetPoint"/>
          </mxGeometry>
        </mxCell>
        <mxCell id="10" value="&#xa;Send Data to &#xa;Staging DB&#xa;" style="verticalAlign=middle;align=center;" parent="2" vertex="1">
          <mxGeometry x="80" y="406" width="110" height="50" as="geometry"/>
        </mxCell>
        <mxCell id="11" value="" style="endArrow=open;strokeColor=#FF0000;endFill=1;rounded=0;exitX=0.5;exitY=1;exitDx=0;exitDy=0;" parent="2" source="AzenDcOQQB6zt5kxm3Mt-47" target="10" edge="1">
          <mxGeometry relative="1" as="geometry">
            <mxPoint x="135" y="372" as="sourcePoint"/>
          </mxGeometry>
        </mxCell>
        <mxCell id="AzenDcOQQB6zt5kxm3Mt-47" value="Message Flow" style="ellipse;shape=umlEntity;whiteSpace=wrap;html=1;" vertex="1" parent="2">
          <mxGeometry x="95" y="250" width="80" height="80" as="geometry"/>
        </mxCell>
        <mxCell id="3" value="Staging DB" style="swimlane;whiteSpace=wrap" parent="1" vertex="1">
          <mxGeometry x="444.5" y="128" width="280" height="570" as="geometry"/>
        </mxCell>
        <mxCell id="13" value="" style="ellipse;shape=startState;fillColor=#000000;strokeColor=#ff0000;" parent="3" vertex="1">
          <mxGeometry x="115.5" y="42" width="30" height="30" as="geometry"/>
        </mxCell>
        <mxCell id="14" value="" style="edgeStyle=elbowEdgeStyle;elbow=horizontal;verticalAlign=bottom;endArrow=open;endSize=8;strokeColor=#FF0000;endFill=1;rounded=0" parent="3" source="13" target="15" edge="1">
          <mxGeometry x="95.5" y="22" as="geometry">
            <mxPoint x="110.5" y="92" as="targetPoint"/>
          </mxGeometry>
        </mxCell>
        <mxCell id="15" value="Store Staging Data" style="" parent="3" vertex="1">
          <mxGeometry x="75.5" y="112" width="110" height="50" as="geometry"/>
        </mxCell>
        <mxCell id="17" value="" style="endArrow=open;strokeColor=#FF0000;endFill=1;rounded=0;entryX=0.5;entryY=0;entryDx=0;entryDy=0;" parent="3" source="15" target="AzenDcOQQB6zt5kxm3Mt-53" edge="1">
          <mxGeometry relative="1" as="geometry">
            <mxPoint x="130.5" y="242" as="targetPoint"/>
          </mxGeometry>
        </mxCell>
        <mxCell id="31" value="Maintenance Plan &#xa;to Backup DB" style="shape=note;whiteSpace=wrap;size=17" parent="3" vertex="1">
          <mxGeometry x="70" y="409" width="120" height="50" as="geometry"/>
        </mxCell>
        <mxCell id="32" value="" style="endArrow=none;strokeColor=#FF0000;endFill=0;rounded=0;dashed=1;exitX=0.5;exitY=1;exitDx=0;exitDy=0;" parent="3" source="AzenDcOQQB6zt5kxm3Mt-53" target="31" edge="1">
          <mxGeometry relative="1" as="geometry">
            <mxPoint x="142.62121212121224" y="377" as="sourcePoint"/>
          </mxGeometry>
        </mxCell>
        <mxCell id="AzenDcOQQB6zt5kxm3Mt-53" value="Staging Data" style="ellipse;shape=umlEntity;whiteSpace=wrap;html=1;align=center;" vertex="1" parent="3">
          <mxGeometry x="90.5" y="250" width="80" height="80" as="geometry"/>
        </mxCell>
        <mxCell id="4" value="Sync Engin" style="swimlane;whiteSpace=wrap" parent="1" vertex="1">
          <mxGeometry x="725" y="128" width="289" height="570" as="geometry"/>
        </mxCell>
        <mxCell id="38" value="" style="ellipse;shape=endState;fillColor=#000000;strokeColor=#ff0000" parent="4" vertex="1">
          <mxGeometry x="5" y="297" width="30" height="30" as="geometry"/>
        </mxCell>
        <mxCell id="21" value="Data Available" style="rhombus;fillColor=#ffffc0;strokeColor=#ff0000;" parent="4" vertex="1">
          <mxGeometry x="73" y="292" width="110" height="40" as="geometry"/>
        </mxCell>
        <mxCell id="30" value="Retrieve Staging &#xa;Data Periodically" style="" parent="4" vertex="1">
          <mxGeometry x="73" y="112" width="110" height="50" as="geometry"/>
        </mxCell>
        <mxCell id="33" value="Filter Data&#xa;Base on Timestamp" style="" parent="4" vertex="1">
          <mxGeometry x="73" y="193" width="110" height="50" as="geometry"/>
        </mxCell>
        <mxCell id="37" value="" style="edgeStyle=none;strokeColor=#FF0000;endArrow=open;endFill=1;rounded=0;exitX=0.5;exitY=1;exitDx=0;exitDy=0;" parent="4" target="33" edge="1" source="30">
          <mxGeometry width="100" height="100" relative="1" as="geometry">
            <mxPoint x="145.5" y="444.5" as="sourcePoint"/>
            <mxPoint x="265.5" y="444.5" as="targetPoint"/>
          </mxGeometry>
        </mxCell>
        <mxCell id="39" value="" style="endArrow=open;strokeColor=#FF0000;endFill=1;rounded=0;entryX=0.5;entryY=0;entryDx=0;entryDy=0;" parent="4" source="33" target="21" edge="1">
          <mxGeometry relative="1" as="geometry">
            <mxPoint x="320.5" y="515" as="targetPoint"/>
          </mxGeometry>
        </mxCell>
        <mxCell id="AzenDcOQQB6zt5kxm3Mt-60" value="" style="ellipse;shape=startState;fillColor=#000000;strokeColor=#ff0000;" vertex="1" parent="4">
          <mxGeometry x="110.5" y="42" width="30" height="30" as="geometry"/>
        </mxCell>
        <mxCell id="AzenDcOQQB6zt5kxm3Mt-61" value="" style="edgeStyle=elbowEdgeStyle;elbow=horizontal;verticalAlign=bottom;endArrow=open;endSize=8;strokeColor=#FF0000;endFill=1;rounded=0;" edge="1" parent="4">
          <mxGeometry x="-53.5" y="-86" as="geometry">
            <mxPoint x="125" y="112" as="targetPoint"/>
            <mxPoint x="125" y="73" as="sourcePoint"/>
          </mxGeometry>
        </mxCell>
        <mxCell id="AzenDcOQQB6zt5kxm3Mt-79" value="No" style="endArrow=open;strokeColor=#FF0000;endFill=1;rounded=0;entryX=1;entryY=0.5;entryDx=0;entryDy=0;exitX=0;exitY=0.5;exitDx=0;exitDy=0;" edge="1" parent="4" source="21" target="38">
          <mxGeometry relative="1" as="geometry">
            <mxPoint x="302" y="604" as="targetPoint"/>
            <mxPoint x="125.70370370370392" y="332" as="sourcePoint"/>
          </mxGeometry>
        </mxCell>
        <mxCell id="AzenDcOQQB6zt5kxm3Mt-82" value="Prepare SQL Command&#xa;Base On Flag (I, U, D)" style="" vertex="1" parent="4">
          <mxGeometry x="50" y="392" width="150" height="50" as="geometry"/>
        </mxCell>
        <mxCell id="41" value="" style="edgeStyle=elbowEdgeStyle;elbow=horizontal;entryX=0;entryY=0.5;strokeColor=#FF0000;endArrow=open;endFill=1;rounded=0;exitX=1;exitY=0.5;exitDx=0;exitDy=0;entryDx=0;entryDy=0;" parent="1" source="10" target="AzenDcOQQB6zt5kxm3Mt-53" edge="1">
          <mxGeometry width="100" height="100" relative="1" as="geometry">
            <mxPoint x="680" y="623" as="sourcePoint"/>
            <mxPoint x="780" y="523" as="targetPoint"/>
            <Array as="points">
              <mxPoint x="390.5" y="470"/>
              <mxPoint x="815" y="543"/>
            </Array>
          </mxGeometry>
        </mxCell>
        <mxCell id="26" value="" style="edgeStyle=elbowEdgeStyle;elbow=horizontal;verticalAlign=bottom;endArrow=open;endSize=8;strokeColor=#FF0000;endFill=1;rounded=0;entryX=1;entryY=0.5;entryDx=0;entryDy=0;exitX=0;exitY=0.5;exitDx=0;exitDy=0;" parent="1" source="30" target="AzenDcOQQB6zt5kxm3Mt-53" edge="1">
          <mxGeometry x="750.5" y="233" as="geometry">
            <mxPoint x="750.5" y="278" as="targetPoint"/>
            <Array as="points"/>
          </mxGeometry>
        </mxCell>
        <mxCell id="AzenDcOQQB6zt5kxm3Mt-63" value="nPoS DB" style="swimlane;whiteSpace=wrap" vertex="1" parent="1">
          <mxGeometry x="981" y="128" width="256" height="570" as="geometry"/>
        </mxCell>
        <mxCell id="AzenDcOQQB6zt5kxm3Mt-64" value="" style="ellipse;shape=endState;fillColor=#000000;strokeColor=#ff0000" vertex="1" parent="AzenDcOQQB6zt5kxm3Mt-63">
          <mxGeometry x="130" y="500" width="30" height="30" as="geometry"/>
        </mxCell>
        <mxCell id="AzenDcOQQB6zt5kxm3Mt-65" value="queue empty" style="rhombus;fillColor=#ffffc0;strokeColor=#ff0000;" vertex="1" parent="AzenDcOQQB6zt5kxm3Mt-63">
          <mxGeometry x="85.5" y="295" width="80" height="40" as="geometry"/>
        </mxCell>
        <mxCell id="AzenDcOQQB6zt5kxm3Mt-67" value="" style="shape=line;strokeWidth=6;strokeColor=#ff0000;rotation=90" vertex="1" parent="AzenDcOQQB6zt5kxm3Mt-63">
          <mxGeometry x="10.5" y="325" width="50" height="15" as="geometry"/>
        </mxCell>
        <mxCell id="AzenDcOQQB6zt5kxm3Mt-68" value="Retrieve Staging &#xa;Data Periodically" style="" vertex="1" parent="AzenDcOQQB6zt5kxm3Mt-63">
          <mxGeometry x="73" y="112" width="110" height="50" as="geometry"/>
        </mxCell>
        <mxCell id="AzenDcOQQB6zt5kxm3Mt-69" value="" style="whiteSpace=wrap;strokeColor=#FF0000;fillColor=#FF0000" vertex="1" parent="AzenDcOQQB6zt5kxm3Mt-63">
          <mxGeometry x="140.5" y="410" width="5" height="45" as="geometry"/>
        </mxCell>
        <mxCell id="AzenDcOQQB6zt5kxm3Mt-70" value="Filter Data&#xa;Base on Timestamp" style="" vertex="1" parent="AzenDcOQQB6zt5kxm3Mt-63">
          <mxGeometry x="73" y="193" width="110" height="50" as="geometry"/>
        </mxCell>
        <mxCell id="AzenDcOQQB6zt5kxm3Mt-71" value="" style="edgeStyle=elbowEdgeStyle;elbow=horizontal;strokeColor=#FF0000;endArrow=open;endFill=1;rounded=0;entryX=0.25;entryY=0.5;entryPerimeter=0" edge="1" parent="AzenDcOQQB6zt5kxm3Mt-63" target="AzenDcOQQB6zt5kxm3Mt-67">
          <mxGeometry width="100" height="100" relative="1" as="geometry">
            <mxPoint x="145.5" y="425" as="sourcePoint"/>
            <mxPoint x="55.5" y="135" as="targetPoint"/>
            <Array as="points">
              <mxPoint x="165.5" y="150"/>
            </Array>
          </mxGeometry>
        </mxCell>
        <mxCell id="AzenDcOQQB6zt5kxm3Mt-72" value="" style="edgeStyle=none;strokeColor=#FF0000;endArrow=open;endFill=1;rounded=0;exitX=0.5;exitY=1;exitDx=0;exitDy=0;" edge="1" parent="AzenDcOQQB6zt5kxm3Mt-63" source="AzenDcOQQB6zt5kxm3Mt-68" target="AzenDcOQQB6zt5kxm3Mt-70">
          <mxGeometry width="100" height="100" relative="1" as="geometry">
            <mxPoint x="145.5" y="444.5" as="sourcePoint"/>
            <mxPoint x="265.5" y="444.5" as="targetPoint"/>
          </mxGeometry>
        </mxCell>
        <mxCell id="AzenDcOQQB6zt5kxm3Mt-73" value="" style="endArrow=open;strokeColor=#FF0000;endFill=1;rounded=0" edge="1" parent="AzenDcOQQB6zt5kxm3Mt-63" source="AzenDcOQQB6zt5kxm3Mt-70">
          <mxGeometry relative="1" as="geometry">
            <mxPoint x="320.5" y="515" as="targetPoint"/>
          </mxGeometry>
        </mxCell>
        <mxCell id="AzenDcOQQB6zt5kxm3Mt-74" value="" style="ellipse;shape=startState;fillColor=#000000;strokeColor=#ff0000;" vertex="1" parent="AzenDcOQQB6zt5kxm3Mt-63">
          <mxGeometry x="110.5" y="42" width="30" height="30" as="geometry"/>
        </mxCell>
        <mxCell id="AzenDcOQQB6zt5kxm3Mt-75" value="" style="edgeStyle=elbowEdgeStyle;elbow=horizontal;verticalAlign=bottom;endArrow=open;endSize=8;strokeColor=#FF0000;endFill=1;rounded=0;" edge="1" parent="AzenDcOQQB6zt5kxm3Mt-63">
          <mxGeometry x="-53.5" y="-86" as="geometry">
            <mxPoint x="125" y="112" as="targetPoint"/>
            <mxPoint x="125" y="73" as="sourcePoint"/>
          </mxGeometry>
        </mxCell>
        <mxCell id="34" value="" style="whiteSpace=wrap;strokeColor=#FF0000;fillColor=#FF0000" parent="AzenDcOQQB6zt5kxm3Mt-63" vertex="1">
          <mxGeometry x="135" y="422" width="5" height="45" as="geometry"/>
        </mxCell>
        <mxCell id="AzenDcOQQB6zt5kxm3Mt-54" value="" style="edgeStyle=elbowEdgeStyle;elbow=horizontal;entryX=0;entryY=0.5;strokeColor=#FF0000;endArrow=open;endFill=1;rounded=0" edge="1" parent="AzenDcOQQB6zt5kxm3Mt-63">
          <mxGeometry width="100" height="100" relative="1" as="geometry">
            <mxPoint x="94.5" y="412" as="sourcePoint"/>
            <mxPoint x="144.5" y="455" as="targetPoint"/>
            <Array as="points">
              <mxPoint x="94.5" y="437"/>
            </Array>
          </mxGeometry>
        </mxCell>
        <mxCell id="AzenDcOQQB6zt5kxm3Mt-81" value="Yes" style="endArrow=open;strokeColor=#FF0000;endFill=1;rounded=0;exitX=0.5;exitY=1;exitDx=0;exitDy=0;" edge="1" parent="1" source="21">
          <mxGeometry relative="1" as="geometry">
            <mxPoint x="853" y="520" as="targetPoint"/>
            <mxPoint x="863" y="470" as="sourcePoint"/>
          </mxGeometry>
        </mxCell>
      </root>
    </mxGraphModel>
  </diagram>
</mxfile>
